# xmcd
#
# Track frame offsets:
#	150
#	51910
#	107433
#	126340
#
# Disc length: 1961 seconds
#
# Revision: 0
# Processed by: cddbd v1.5.2PL0 Copyright (c) Steve Scherf et al.
# Submitted via: EasyCDDAExtractor 9.0.0.1
#
DISCID=3007a704
DTITLE=Dio - CNE Grandstand Toronto 31-08-85 Disc 2
DYEAR=1985
DGENRE=Hard Rock
TTITLE0=Sacred Heart
TTITLE1=Rock and Roll Children Medley
TTITLE2=Stand Up and Shout
TTITLE3=Rainbow In The Dark
EXTD=
EXTT0=
EXTT1=
EXTT2=
EXTT3=
PLAYORDER=
